<svg width="94" height="60" viewBox="0 0 94 60" fill="none" xmlns="http://www.w3.org/2000/svg">
<g clip-path="url(#clip0)">
<path d="M90.7153 33.0709V23.0078C90.7153 21.5872 88.9155 20.4356 86.6951 20.4356H85.4535C83.8153 20.4356 82.3534 19.7963 81.7269 18.8279C81.72 18.8172 81.7132 18.8065 81.7062 18.7959C81.0767 17.8267 81.4024 16.7118 82.5623 15.9696L83.4402 15.408C85.0102 14.4035 85.0102 12.7749 83.4402 11.7705L72.3182 4.65469C70.7482 3.65022 68.2028 3.65022 66.6328 4.65469L65.7549 5.21634C64.595 5.95846 62.8523 6.16681 61.3375 5.7641C61.3208 5.75963 61.304 5.75528 61.2875 5.75081C59.7738 5.34999 58.7746 4.41469 58.7746 3.36657V2.57222C58.7746 1.15151 56.9745 -1.52588e-05 54.7542 -1.52588e-05H39.0254C36.805 -1.52588e-05 35.0052 1.15151 35.0052 2.5721V3.36646C35.0052 4.41457 34.006 5.34987 32.4923 5.75069C32.4755 5.75516 32.4588 5.75951 32.4422 5.76399C30.9274 6.16669 29.1848 5.95834 28.0248 5.21622L27.147 4.65457C25.577 3.6501 23.0315 3.6501 21.4615 4.65457L10.3396 11.7703C8.76959 12.7748 8.76959 14.4034 10.3396 15.4079L11.2174 15.9695C12.3774 16.7116 12.703 17.8266 12.0736 18.7958C12.0666 18.8065 12.0598 18.8172 12.0528 18.8278C11.4263 19.7962 9.96445 20.4355 8.32625 20.4355H7.08467C4.86429 20.4355 3.06445 21.587 3.06445 23.0076V33.0708C3.06445 34.4914 4.86429 35.6429 7.08467 35.6429H8.32625C9.96445 35.6429 11.4263 36.2822 12.0528 37.2507C12.0598 37.2614 12.0666 37.2721 12.0736 37.2827C12.703 38.2519 12.3774 39.3668 11.2174 40.1089L10.3396 40.6706C8.76959 41.6751 8.76959 43.3036 10.3396 44.3081L21.4615 51.4239C23.0315 52.4283 25.577 52.4283 27.147 51.4239L28.0248 50.8622C29.1848 50.1201 30.9274 49.9118 32.4422 50.3145C32.459 50.3189 32.4757 50.3233 32.4923 50.3278C34.006 50.7286 35.0052 51.6639 35.0052 52.712V53.5063C35.0052 54.9269 36.805 56.0785 39.0254 56.0785H54.7542C56.9745 56.0785 58.7744 54.9269 58.7744 53.5063V52.712C58.7744 51.6639 59.7736 50.7286 61.2873 50.3278C61.304 50.3233 61.3208 50.3189 61.3373 50.3145C62.8522 49.9118 64.5948 50.1201 65.7547 50.8622L66.6326 51.4239C68.2026 52.4283 70.7481 52.4283 72.3181 51.4239L83.44 44.3081C85.01 43.3036 85.01 41.6751 83.44 40.6706L82.5621 40.1089C81.4022 39.3668 81.0765 38.2519 81.706 37.2827C81.713 37.272 81.7198 37.2613 81.7268 37.2507C82.3532 36.2822 83.8151 35.6429 85.4533 35.6429H86.6949C88.9155 35.643 90.7153 34.4914 90.7153 33.0709V33.0709Z" fill="url(#paint0_linear)"/>
<path d="M46.8897 47.5606C63.7409 47.5606 77.4015 38.8206 77.4015 28.0393C77.4015 17.258 63.7409 8.51797 46.8897 8.51797C30.0385 8.51797 16.3779 17.258 16.3779 28.0393C16.3779 38.8206 30.0385 47.5606 46.8897 47.5606Z" fill="url(#paint1_linear)"/>
<path d="M90.6933 33.334C90.4875 34.6312 88.7754 35.6427 86.695 35.6427H85.453C83.8154 35.6427 82.3539 36.2819 81.727 37.2508C81.7191 37.2621 81.7132 37.2721 81.7055 37.2834C81.0766 38.2522 81.4019 39.3665 82.5617 40.1098L83.4412 40.6713C85.0104 41.6753 85.0104 43.3033 83.4412 44.3086L72.3179 51.4239C70.7487 52.4291 68.2021 52.4291 66.6329 51.4239L65.7552 50.8624C64.5954 50.1204 62.8519 49.9124 61.3376 50.3146C61.3199 50.3196 61.3043 50.3234 61.2867 50.3284C59.7742 50.7281 58.7752 51.6645 58.7752 52.7122V53.5068C58.7752 54.8429 57.1826 55.9408 55.1452 56.0662L29.7937 39.8389C24.855 36.9099 22.1535 32.7248 22.1399 28.0686C22.1243 22.6603 25.8895 18.1232 32.2759 15.1991C33.0673 14.8368 34.0723 14.7253 34.6149 15.1439C34.7951 15.2842 56.4441 29.1113 56.6889 29.2618C57.9955 28.5825 58.7752 27.5572 58.7752 26.4605V15.842C58.7752 14.9496 60.3542 14.4232 61.4904 14.9421C62.8969 15.5863 64.1959 16.3195 65.3653 17.1305L90.6933 33.334Z" fill="url(#paint2_linear)"/>
<path d="M83.4399 40.6707L82.5621 40.109C81.4022 39.3669 81.0765 38.252 81.7059 37.2828C81.7129 37.2721 81.7197 37.2614 81.7267 37.2508C82.3532 36.2823 83.8151 35.643 85.4533 35.643H86.6948C88.7753 35.643 90.4867 34.6319 90.6939 33.3358L65.3652 17.1305C64.8285 16.7582 64.2662 16.4035 63.6766 16.0676C67.6553 18.9128 70.0728 22.669 70.0728 26.7863C70.0728 32.919 64.7071 38.2508 56.8162 40.9643V55.7115C57.9879 55.2621 58.7745 54.4441 58.7745 53.5065V52.7121C58.7745 51.664 59.7737 50.7287 61.2874 50.3279C61.3042 50.3234 61.3209 50.319 61.3375 50.3146C62.8523 49.9119 64.5949 50.1202 65.7549 50.8623L66.6327 51.424C68.2027 52.4285 70.7482 52.4285 72.3182 51.424L83.4401 44.3082C85.0101 43.3038 85.0101 41.6752 83.4399 40.6707Z" fill="url(#paint3_linear)"/>
<path d="M58.2318 57.1893C58.7667 55.2737 59.0357 53.3327 59.0357 51.388V38.108H34.7441V51.3881C34.7441 53.3328 35.0132 55.2738 35.5481 57.1894C36.0017 58.8144 38.2556 60 40.8906 60H52.8893C55.5243 60 57.7782 58.8144 58.2318 57.1893V57.1893Z" fill="url(#paint4_linear)"/>
<path d="M34.7441 42.2221L58.291 56.9633C58.7849 55.1211 59.0357 53.2564 59.0357 51.3881V38.108H34.7441V42.2221Z" fill="url(#paint5_linear)"/>
<path d="M72.0316 28.0393C72.0316 36.923 60.7753 44.1248 46.8901 44.1249C33.0048 44.125 21.7729 36.9524 21.7481 28.0687C21.733 22.6602 25.8897 17.872 32.2761 14.9487C33.4174 14.4263 35.0047 14.9452 35.0047 15.8429V26.4601C35.0047 27.7514 36.0814 28.9446 37.8292 29.5902L44.0652 31.8939C45.8131 32.5396 47.9668 32.5396 49.7148 31.8939L55.9508 29.5902C57.6986 28.9446 58.7752 27.7514 58.7752 26.4601V15.8426C58.7752 14.9494 60.3546 14.4234 61.4906 14.9426C67.8728 17.86 72.0316 22.6392 72.0316 28.0393V28.0393Z" fill="url(#paint6_linear)"/>
<path d="M28.2839 29.3942C28.2839 31.4156 29.9693 33.2835 32.7055 34.2943L42.4678 37.9006C45.2042 38.9114 48.5757 38.9114 51.312 37.9006L61.0743 34.2943C63.8105 33.2836 65.496 31.4157 65.496 29.3942V17.2227C64.2921 16.3755 62.9503 15.6099 61.4905 14.9427C60.3546 14.4234 58.7751 14.9495 58.7751 15.8427V26.4602C58.7751 27.7515 57.6984 28.9447 55.9506 29.5903L49.7146 31.894C47.9666 32.5397 45.813 32.5397 44.065 31.894L37.829 29.5903C36.0812 28.9447 35.0046 27.7515 35.0046 26.4602V15.843C35.0046 14.9451 33.4173 14.4263 32.276 14.9488C30.8215 15.6146 29.4841 16.3781 28.2837 17.2227V29.3942H28.2839Z" fill="url(#paint7_linear)"/>
</g>
<defs>
<linearGradient id="paint0_linear" x1="30.0391" y1="17.2582" x2="56.5309" y2="58.6649" gradientUnits="userSpaceOnUse">
<stop stop-color="#7FAEF4"/>
<stop offset="1" stop-color="#4C8DF1"/>
</linearGradient>
<linearGradient id="paint1_linear" x1="66.4747" y1="40.5696" x2="41.843" y2="2.07027" gradientUnits="userSpaceOnUse">
<stop stop-color="#7FAEF4"/>
<stop offset="1" stop-color="#4C8DF1"/>
</linearGradient>
<linearGradient id="paint2_linear" x1="51.4898" y1="33.3241" x2="26.7785" y2="14.1214" gradientUnits="userSpaceOnUse">
<stop stop-color="#4C8DF1" stop-opacity="0"/>
<stop offset="0.5631" stop-color="#466CC8" stop-opacity="0.563"/>
<stop offset="1" stop-color="#4256AC"/>
</linearGradient>
<linearGradient id="paint3_linear" x1="77.4007" y1="41.1826" x2="58.7575" y2="27.1297" gradientUnits="userSpaceOnUse">
<stop stop-color="#4C8DF1" stop-opacity="0"/>
<stop offset="0.5631" stop-color="#466CC8" stop-opacity="0.563"/>
<stop offset="1" stop-color="#4256AC"/>
</linearGradient>
<linearGradient id="paint4_linear" x1="46.0079" y1="47.2532" x2="54.7929" y2="60.9843" gradientUnits="userSpaceOnUse">
<stop stop-color="#FFD833"/>
<stop offset="1" stop-color="#F2B631"/>
</linearGradient>
<linearGradient id="paint5_linear" x1="54.2042" y1="50.7559" x2="49.6821" y2="34.7595" gradientUnits="userSpaceOnUse">
<stop stop-color="#F9A126" stop-opacity="0"/>
<stop offset="1" stop-color="#EC4437"/>
</linearGradient>
<linearGradient id="paint6_linear" x1="37.6791" y1="22.1507" x2="56.75" y2="51.9583" gradientUnits="userSpaceOnUse">
<stop stop-color="#FFD833"/>
<stop offset="1" stop-color="#F2B631"/>
</linearGradient>
<linearGradient id="paint7_linear" x1="60.8478" y1="33.3975" x2="39.2259" y2="-0.39742" gradientUnits="userSpaceOnUse">
<stop stop-color="#FFD833"/>
<stop offset="1" stop-color="#F2B631"/>
</linearGradient>
<clipPath id="clip0">
<rect width="93.78" height="60" fill="white"/>
</clipPath>
</defs>
</svg>
