<svg width="51" height="23" viewBox="0 0 51 23" fill="none" xmlns="http://www.w3.org/2000/svg">
<rect width="51" height="23" rx="5" fill="#1ABC9C"/>
<path d="M10.284 11.8H11.136V15.004C10.744 15.348 10.28 15.612 9.744 15.796C9.208 15.98 8.644 16.072 8.052 16.072C7.212 16.072 6.456 15.888 5.784 15.52C5.112 15.152 4.584 14.644 4.2 13.996C3.816 13.34 3.624 12.608 3.624 11.8C3.624 10.992 3.816 10.264 4.2 9.616C4.584 8.96 5.112 8.448 5.784 8.08C6.456 7.712 7.216 7.528 8.064 7.528C8.704 7.528 9.292 7.632 9.828 7.84C10.364 8.04 10.816 8.34 11.184 8.74L10.632 9.304C9.968 8.648 9.124 8.32 8.1 8.32C7.42 8.32 6.804 8.472 6.252 8.776C5.708 9.072 5.28 9.488 4.968 10.024C4.656 10.552 4.5 11.144 4.5 11.8C4.5 12.456 4.656 13.048 4.968 13.576C5.28 14.104 5.708 14.52 6.252 14.824C6.796 15.128 7.408 15.28 8.088 15.28C8.952 15.28 9.684 15.064 10.284 14.632V11.8ZM19.3853 16L17.4653 13.3C17.2493 13.324 17.0253 13.336 16.7933 13.336H14.5373V16H13.6493V7.6H16.7933C17.8653 7.6 18.7053 7.856 19.3133 8.368C19.9213 8.88 20.2253 9.584 20.2253 10.48C20.2253 11.136 20.0573 11.692 19.7213 12.148C19.3933 12.596 18.9213 12.92 18.3053 13.12L20.3573 16H19.3853ZM16.7693 12.58C17.6013 12.58 18.2373 12.396 18.6773 12.028C19.1173 11.66 19.3372 11.144 19.3372 10.48C19.3372 9.8 19.1173 9.28 18.6773 8.92C18.2373 8.552 17.6013 8.368 16.7693 8.368H14.5373V12.58H16.7693ZM27.5891 13.756H22.9091L21.9011 16H20.9771L24.8171 7.6H25.6931L29.5331 16H28.5971L27.5891 13.756ZM27.2651 13.036L25.2491 8.524L23.2331 13.036H27.2651ZM32.1328 8.368H29.1808V7.6H35.9728V8.368H33.0208V16H32.1328V8.368ZM37.3914 7.6H38.2794V16H37.3914V7.6ZM43.3285 16.072C42.7045 16.072 42.1045 15.972 41.5285 15.772C40.9605 15.572 40.5205 15.308 40.2085 14.98L40.5565 14.296C40.8605 14.6 41.2645 14.848 41.7685 15.04C42.2725 15.224 42.7925 15.316 43.3285 15.316C44.0805 15.316 44.6445 15.18 45.0205 14.908C45.3965 14.628 45.5845 14.268 45.5845 13.828C45.5845 13.492 45.4805 13.224 45.2725 13.024C45.0725 12.824 44.8245 12.672 44.5285 12.568C44.2325 12.456 43.8205 12.336 43.2925 12.208C42.6605 12.048 42.1565 11.896 41.7805 11.752C41.4045 11.6 41.0805 11.372 40.8085 11.068C40.5445 10.764 40.4125 10.352 40.4125 9.832C40.4125 9.408 40.5245 9.024 40.7485 8.68C40.9725 8.328 41.3165 8.048 41.7805 7.84C42.2445 7.632 42.8205 7.528 43.5085 7.528C43.9885 7.528 44.4565 7.596 44.9125 7.732C45.3765 7.86 45.7765 8.04 46.1125 8.272L45.8125 8.98C45.4605 8.748 45.0845 8.576 44.6845 8.464C44.2845 8.344 43.8925 8.284 43.5085 8.284C42.7725 8.284 42.2165 8.428 41.8405 8.716C41.4725 8.996 41.2885 9.36 41.2885 9.808C41.2885 10.144 41.3885 10.416 41.5885 10.624C41.7965 10.824 42.0525 10.98 42.3565 11.092C42.6685 11.196 43.0845 11.312 43.6045 11.44C44.2205 11.592 44.7165 11.744 45.0925 11.896C45.4765 12.04 45.8005 12.264 46.0645 12.568C46.3285 12.864 46.4605 13.268 46.4605 13.78C46.4605 14.204 46.3445 14.592 46.1125 14.944C45.8885 15.288 45.5405 15.564 45.0685 15.772C44.5965 15.972 44.0165 16.072 43.3285 16.072Z" fill="black"/>
</svg>
