<svg width="51" height="23" viewBox="0 0 51 23" fill="none" xmlns="http://www.w3.org/2000/svg">
<rect width="51" height="23" rx="5" fill="#1ABC9C"/>
<path d="M4.11523 12.6602V16H2.99023V7.46875H6.13672C7.07031 7.46875 7.80078 7.70703 8.32812 8.18359C8.85938 8.66016 9.125 9.29102 9.125 10.0762C9.125 10.9043 8.86523 11.543 8.3457 11.9922C7.83008 12.4375 7.08984 12.6602 6.125 12.6602H4.11523ZM4.11523 11.7402H6.13672C6.73828 11.7402 7.19922 11.5996 7.51953 11.3184C7.83984 11.0332 8 10.623 8 10.0879C8 9.58008 7.83984 9.17383 7.51953 8.86914C7.19922 8.56445 6.75977 8.40625 6.20117 8.39453H4.11523V11.7402ZM15.3828 12.0566H11.6855V15.0801H15.9805V16H10.5605V7.46875H15.9219V8.39453H11.6855V11.1367H15.3828V12.0566ZM18.834 7.46875L21.623 14.4297L24.4121 7.46875H25.8711V16H24.7461V12.6777L24.8516 9.0918L22.0508 16H21.1895L18.3945 9.10938L18.5059 12.6777V16H17.3809V7.46875H18.834ZM33.8633 7.46875V13.2695C33.8594 14.0742 33.6055 14.7324 33.1016 15.2441C32.6016 15.7559 31.9219 16.043 31.0625 16.1055L30.7637 16.1172C29.8301 16.1172 29.0859 15.8652 28.5312 15.3613C27.9766 14.8574 27.6953 14.1641 27.6875 13.2812V7.46875H28.8008V13.2461C28.8008 13.8633 28.9707 14.3438 29.3105 14.6875C29.6504 15.0273 30.1348 15.1973 30.7637 15.1973C31.4004 15.1973 31.8867 15.0273 32.2227 14.6875C32.5625 14.3477 32.7324 13.8691 32.7324 13.252V7.46875H33.8633ZM36.7695 15.0801H40.8125V16H35.6387V7.46875H36.7695V15.0801ZM46.9238 13.7734H43.3496L42.5469 16H41.3867L44.6445 7.46875H45.6289L48.8926 16H47.7383L46.9238 13.7734ZM43.6895 12.8477H46.5898L45.1367 8.85742L43.6895 12.8477Z" fill="black"/>
</svg>
