<svg width="51" height="23" viewBox="0 0 51 23" fill="none" xmlns="http://www.w3.org/2000/svg">
<rect width="51" height="23" rx="5" fill="#FBD294"/>
<path d="M8.27588 13.3301H5.59521L4.99316 15H4.12305L6.56641 8.60156H7.30469L9.75244 15H8.88672L8.27588 13.3301ZM5.8501 12.6357H8.02539L6.93555 9.64307L5.8501 12.6357ZM11.4619 14.3101H14.4941V15H10.6138V8.60156H11.4619V14.3101ZM16.3047 14.3101H19.3369V15H15.4565V8.60156H16.3047V14.3101ZM23.3799 14.3101H26.4121V15H22.5317V8.60156H23.3799V14.3101ZM30.9912 12.0425H28.2183V14.3101H31.4395V15H27.3745V8.60156H31.3955V9.2959H28.2183V11.3525H30.9912V12.0425ZM34.6079 13.8794L36.436 8.60156H37.3589L34.9858 15H34.2388L31.8701 8.60156H32.7886L34.6079 13.8794ZM41.8369 12.0425H39.064V14.3101H42.2852V15H38.2202V8.60156H42.2412V9.2959H39.064V11.3525H41.8369V12.0425ZM44.1836 14.3101H47.2158V15H43.3354V8.60156H44.1836V14.3101Z" fill="black"/>
</svg>
