<svg width="51" height="23" viewBox="0 0 51 23" fill="none" xmlns="http://www.w3.org/2000/svg">
<rect width="51" height="23" rx="5" fill="#88C6FF"/>
<path d="M5.62891 8.3125L7.48828 12.9531L9.34766 8.3125H10.3203V14H9.57031V11.7852L9.64062 9.39453L7.77344 14H7.19922L5.33594 9.40625L5.41016 11.7852V14H4.66016V8.3125H5.62891ZM14.8594 11.3711H12.3945V13.3867H15.2578V14H11.6445V8.3125H15.2188V8.92969H12.3945V10.7578H14.8594V11.3711ZM20.5625 14H19.8086L16.9453 9.61719V14H16.1914V8.3125H16.9453L19.8164 12.7148V8.3125H20.5625V14ZM25.1094 11.3711H22.6445V13.3867H25.5078V14H21.8945V8.3125H25.4688V8.92969H22.6445V10.7578H25.1094V11.3711ZM30.8125 14H30.0586L27.1953 9.61719V14H26.4414V8.3125H27.1953L30.0664 12.7148V8.3125H30.8125V14ZM36.3438 13.2539C36.151 13.5299 35.8815 13.737 35.5352 13.875C35.1914 14.0104 34.7904 14.0781 34.332 14.0781C33.8685 14.0781 33.457 13.9701 33.0977 13.7539C32.7383 13.5352 32.4596 13.2253 32.2617 12.8242C32.0664 12.4232 31.9661 11.9583 31.9609 11.4297V10.9336C31.9609 10.0768 32.1602 9.41276 32.5586 8.94141C32.9596 8.47005 33.5221 8.23438 34.2461 8.23438C34.8398 8.23438 35.3177 8.38672 35.6797 8.69141C36.0417 8.99349 36.263 9.42318 36.3438 9.98047H35.5938C35.4531 9.22786 35.0052 8.85156 34.25 8.85156C33.7474 8.85156 33.3659 9.02865 33.1055 9.38281C32.8477 9.73438 32.7174 10.2448 32.7148 10.9141V11.3789C32.7148 12.0169 32.8607 12.5247 33.1523 12.9023C33.444 13.2773 33.8385 13.4648 34.3359 13.4648C34.6172 13.4648 34.8633 13.4336 35.0742 13.3711C35.2852 13.3086 35.4596 13.2031 35.5977 13.0547V11.7773H34.2812V11.168H36.3438V13.2539ZM40.7383 12.5156H38.3555L37.8203 14H37.0469L39.2188 8.3125H39.875L42.0508 14H41.2812L40.7383 12.5156ZM38.582 11.8984H40.5156L39.5469 9.23828L38.582 11.8984ZM47.1875 14H46.4336V11.3711H43.5664V14H42.8164V8.3125H43.5664V10.7578H46.4336V8.3125H47.1875V14Z" fill="black"/>
</svg>
